M48
METRIC,LZ,000.000
;FILE_FORMAT=3:3
;TYPE=PLATED
;Layer: PTH_Through
;EasyEDA v6.5.22, 2023-02-18 16:28:39
;118ec262f11f47d2beab0417d1fdac3e,1e4d668faf9c44eeab1497739a8aa4b2,10
;Gerber Generator version 0.2
;Holesize 1 = 0.915 mm
T01C0.915
;Holesize 2 = 1.000 mm
T02C1.000
;Holesize 3 = 1.100 mm
T03C1.100
;Holesize 4 = 7.000 mm
T04C7.000
;Holesize 5 = 22.000 mm
T05C22.000
%
G05
G90
T01
X-005080Y-007620
X-002540Y-007620
X000000Y-007620
X002540Y-007620
X005080Y-007620
X005080Y007620
X002540Y007620
X000000Y007620
X-002540Y007620
X-005080Y007620
X007747Y-007620
X010287Y-007620
X012827Y-007620
X015367Y-007620
X017907Y-007620
X017907Y007620
X015367Y007620
X012827Y007620
X010287Y007620
X007747Y007620
T02
X037211Y-022352
X037211Y-019812
X037211Y-014732
X037211Y-017272
X037211Y-007112
X037211Y-004572
X037211Y-009652
X037211Y-012192
X037211Y008128
X037211Y010668
X037211Y015748
X037211Y013208
X037211Y003048
X037211Y005588
X037211Y000508
X037211Y-002032
X037211Y023368
X037211Y025908
X037211Y020828
X037211Y018288
X054991Y018288
X054991Y020828
X054991Y025908
X054991Y023368
X054991Y-002032
X054991Y000508
X054991Y005588
X054991Y003048
X054991Y013208
X054991Y015748
X054991Y010668
X054991Y008128
X054991Y-012192
X054991Y-009652
X054991Y-004572
X054991Y-007112
X054991Y-017272
X054991Y-014732
X054991Y-019812
X054991Y-022352
X-021350Y015000
X-018810Y015000
X-021350Y005000
X-018810Y005000
X-021350Y-005000
X-018810Y-005000
X-021350Y-015000
X-018810Y-015000
X068350Y025000
X065810Y025000
X068350Y015000
X065810Y015000
X066167Y-018542
X066167Y-021082
X083350Y025000
X080810Y025000
T03
X065765Y020045G85X065765Y020045
X058949Y013229G85X058949Y013229
X-003662Y-020468G85X-003662Y-020468
X003154Y-027284G85X003154Y-027284
X-010160Y002788G85X-010160Y002788
X-010160Y-006852G85X-010160Y-006852
T04
X085000Y-020000
X027000Y000000
X-010000Y022000
X-010000Y-022000
T05
X080010Y000000
M30
