G04 Layer: BottomLayer*
G04 EasyEDA v6.5.22, 2023-02-18 16:28:39*
G04 118ec262f11f47d2beab0417d1fdac3e,1e4d668faf9c44eeab1497739a8aa4b2,10*
G04 Gerber Generator version 0.2*
G04 Scale: 100 percent, Rotated: No, Reflected: No *
G04 Dimensions in millimeters *
G04 leading zeros omitted , absolute positions ,4 integer and 5 decimal *
%FSLAX45Y45*%
%MOMM*%

%AMMACRO1*21,1,$1,$2,0,0,$3*%
%ADD10C,0.5000*%
%ADD11MACRO1,2X2X0.0000*%
%ADD12C,2.0000*%
%ADD13C,1.5240*%
%ADD14C,24.9999*%
%ADD15C,10.0000*%

%LPD*%
D10*
X-1016000Y-685190D02*
G01*
X-1016000Y-990600D01*
X508000Y-2514600D01*
X4114800Y-2514600D01*
X4394200Y-2235200D01*
X4394200Y1231900D01*
X5499100Y2336800D01*
X-1880870Y1499870D02*
G01*
X-1233170Y1499870D01*
X-749300Y1016000D01*
X-749300Y-1104900D01*
X558800Y-2413000D01*
X4064000Y-2413000D01*
X4292600Y-2184400D01*
X4292600Y1384300D01*
X5499100Y2590800D01*
X3683000Y1320800D02*
G01*
X3721100Y1320800D01*
X5499100Y1066800D02*
G01*
X6147790Y1066800D01*
X6580987Y1499996D01*
X5499100Y-1727200D02*
G01*
X6489700Y-1727200D01*
X6616700Y-1854200D01*
X5499100Y-2235200D02*
G01*
X6489700Y-2235200D01*
X6616700Y-2108200D01*
X8080984Y2499995D02*
G01*
X6139789Y558800D01*
X5499100Y558800D01*
X315417Y-2728417D02*
G01*
X433882Y-2728417D01*
X445922Y-2716377D01*
X4217822Y-2716377D01*
X4610100Y-2324100D01*
X4610100Y685800D01*
X5499100Y1574800D01*
X-366219Y-2046780D02*
G01*
X-366219Y-1945180D01*
X-811403Y-1499996D01*
X-1880996Y-1499996D01*
X5499100Y1828800D02*
G01*
X4506975Y836676D01*
X4506975Y-2274823D01*
X4165600Y-2616200D01*
X457200Y-2616200D01*
X-1651000Y-508000D01*
X-1872995Y-508000D01*
X-1880870Y-500126D01*
X-1880996Y499998D02*
G01*
X-1237208Y499998D01*
X-1016000Y278790D01*
X5499100Y1320800D02*
G01*
X5894831Y1322831D01*
X6576519Y2004519D02*
G01*
X6576519Y2495527D01*
X6580987Y2499995D01*
D11*
G01*
X3721100Y-2235200D03*
D12*
G01*
X3721100Y-1981200D03*
G01*
X3721100Y-1473200D03*
G01*
X3721100Y-1727200D03*
G01*
X3721100Y-711200D03*
G01*
X3721100Y-457200D03*
G01*
X3721100Y-965200D03*
G01*
X3721100Y-1219200D03*
G01*
X3721100Y812800D03*
G01*
X3721100Y1066800D03*
G01*
X3721100Y1574800D03*
G01*
X3721100Y1320800D03*
G01*
X3721100Y304800D03*
G01*
X3721100Y558800D03*
G01*
X3721100Y50800D03*
G01*
X3721100Y-203200D03*
G01*
X3721100Y2336800D03*
G01*
X3721100Y2590800D03*
G01*
X3721100Y2082800D03*
G01*
X3721100Y1828800D03*
G01*
X5499100Y1828800D03*
G01*
X5499100Y2082800D03*
G01*
X5499100Y2590800D03*
G01*
X5499100Y2336800D03*
G01*
X5499100Y-203200D03*
G01*
X5499100Y50800D03*
G01*
X5499100Y558800D03*
G01*
X5499100Y304800D03*
G01*
X5499100Y1320800D03*
G01*
X5499100Y1574800D03*
G01*
X5499100Y1066800D03*
G01*
X5499100Y812800D03*
G01*
X5499100Y-1219200D03*
G01*
X5499100Y-965200D03*
G01*
X5499100Y-457200D03*
G01*
X5499100Y-711200D03*
G01*
X5499100Y-1727200D03*
G01*
X5499100Y-1473200D03*
G01*
X5499100Y-1981200D03*
G01*
X5499100Y-2235200D03*
D13*
G01*
X-2134996Y1499996D03*
G01*
X-1880996Y1499996D03*
G01*
X-2134996Y499998D03*
G01*
X-1880996Y499998D03*
G01*
X-2134996Y-499998D03*
G01*
X-1880996Y-499998D03*
G01*
X-2134996Y-1499996D03*
G01*
X-1880996Y-1499996D03*
G01*
X6834987Y2499995D03*
G01*
X6580987Y2499995D03*
G01*
X6834987Y1499996D03*
G01*
X6580987Y1499996D03*
G01*
X6616700Y-1854200D03*
G01*
X6616700Y-2108200D03*
G01*
X8334984Y2499995D03*
G01*
X8080984Y2499995D03*
D12*
G01*
X6576517Y2004517D03*
G01*
X5894882Y1322882D03*
G01*
X-366217Y-2046782D03*
G01*
X315417Y-2728417D03*
G01*
X-1016000Y278790D03*
G01*
X-1016000Y-685190D03*
D13*
G01*
X-508000Y-762000D03*
G01*
X-254000Y-762000D03*
G01*
X0Y-762000D03*
G01*
X254000Y-762000D03*
G01*
X508000Y-762000D03*
G01*
X508000Y762000D03*
G01*
X254000Y762000D03*
G01*
X0Y762000D03*
G01*
X-254000Y762000D03*
G01*
X-508000Y762000D03*
G01*
X774700Y-762000D03*
G01*
X1028700Y-762000D03*
G01*
X1282700Y-762000D03*
G01*
X1536700Y-762000D03*
G01*
X1790700Y-762000D03*
G01*
X1790700Y762000D03*
G01*
X1536700Y762000D03*
G01*
X1282700Y762000D03*
G01*
X1028700Y762000D03*
G01*
X774700Y762000D03*
D14*
G01*
X8001000Y0D03*
D15*
G01*
X8499983Y-1999995D03*
G01*
X2699994Y0D03*
G01*
X-999997Y2199995D03*
G01*
X-999997Y-2199995D03*
M02*
