G04 Layer: BottomSilkscreenLayer*
G04 EasyEDA v6.5.22, 2023-02-18 16:28:39*
G04 118ec262f11f47d2beab0417d1fdac3e,1e4d668faf9c44eeab1497739a8aa4b2,10*
G04 Gerber Generator version 0.2*
G04 Scale: 100 percent, Rotated: No, Reflected: No *
G04 Dimensions in millimeters *
G04 leading zeros omitted , absolute positions ,4 integer and 5 decimal *
%FSLAX45Y45*%
%MOMM*%

%ADD10C,0.2032*%
%ADD11C,0.1520*%
%ADD12C,0.1500*%
%ADD13C,0.1524*%
%ADD14C,0.5000*%
%ADD15C,0.2540*%
%ADD16C,0.0156*%

%LPD*%
G36*
X1169873Y512673D02*
G01*
X1169619Y511962D01*
X1169111Y505968D01*
X1168552Y480618D01*
X1168501Y431901D01*
X1251102Y388620D01*
X1275994Y375869D01*
X1295552Y366268D01*
X1316685Y356717D01*
X1334211Y349402D01*
X1359306Y339445D01*
X1369060Y335991D01*
X1393748Y328218D01*
X1422958Y319836D01*
X1461058Y309727D01*
X1489049Y302971D01*
X1511604Y298196D01*
X1519834Y296824D01*
X1531772Y295656D01*
X1538478Y294436D01*
X1544929Y292658D01*
X1550263Y290626D01*
X1561287Y285394D01*
X1418437Y290474D01*
X1341526Y310489D01*
X1314450Y318160D01*
X1289558Y325983D01*
X1265682Y334264D01*
X1247749Y341071D01*
X1222908Y351180D01*
X1171244Y373481D01*
X1165758Y10769D01*
X1123086Y3505D01*
X1102055Y457D01*
X1076604Y-2794D01*
X1043533Y-6451D01*
X973480Y-12954D01*
X842721Y-7061D01*
X808786Y-5029D01*
X779729Y-2743D01*
X754735Y-50D01*
X732840Y3149D01*
X713282Y6959D01*
X704088Y9144D01*
X695147Y11531D01*
X677519Y16967D01*
X642721Y29057D01*
X629107Y20523D01*
X632968Y-304D01*
X701700Y-37084D01*
X807364Y-64160D01*
X922172Y-63855D01*
X983386Y-62738D01*
X1045413Y-60756D01*
X1069949Y-59690D01*
X1171244Y-53898D01*
X1252321Y-36322D01*
X1282192Y-29311D01*
X1318768Y-20066D01*
X1354480Y-10160D01*
X1382369Y-1828D01*
X1416405Y9144D01*
X1442872Y18237D01*
X1475028Y30175D01*
X1499971Y40030D01*
X1530146Y52832D01*
X1553413Y63398D01*
X1581404Y77012D01*
X1602892Y88188D01*
X1623517Y99669D01*
X1643329Y111353D01*
X1662226Y123291D01*
X1680210Y135483D01*
X1688896Y141630D01*
X1705457Y154127D01*
X1721104Y166827D01*
X1735734Y179730D01*
X1746046Y189484D01*
X1755749Y199390D01*
X1789430Y234848D01*
X1810969Y282752D01*
X1811223Y339496D01*
X1793493Y365760D01*
X1786534Y375107D01*
X1783080Y379323D01*
X1775917Y386943D01*
X1768043Y393903D01*
X1759000Y400456D01*
X1748383Y407060D01*
X1735734Y414070D01*
X1682089Y440791D01*
X1622653Y453390D01*
X1607616Y456184D01*
X1592580Y458673D01*
X1578406Y460654D01*
X1565808Y462127D01*
X1555496Y462940D01*
X1525219Y463143D01*
X1518818Y446328D01*
X1532382Y429818D01*
X1553413Y429717D01*
X1563624Y428853D01*
X1574850Y427177D01*
X1586839Y424840D01*
X1599336Y421792D01*
X1612188Y418185D01*
X1625092Y414121D01*
X1637792Y409600D01*
X1650136Y404774D01*
X1661820Y399643D01*
X1672589Y394309D01*
X1682242Y388874D01*
X1686610Y386181D01*
X1707540Y372364D01*
X1723288Y341579D01*
X1723288Y321513D01*
X1723034Y317144D01*
X1722221Y312267D01*
X1720900Y307035D01*
X1719122Y301447D01*
X1714449Y289661D01*
X1708505Y277469D01*
X1701698Y265480D01*
X1694434Y254304D01*
X1690725Y249224D01*
X1687017Y244602D01*
X1683359Y240436D01*
X1679803Y236880D01*
X1676400Y233984D01*
X1673199Y231851D01*
X1670253Y230479D01*
X1667611Y230022D01*
X1662074Y230022D01*
X1669643Y328218D01*
X1656994Y352145D01*
X1626311Y352196D01*
X1605686Y353161D01*
X1583232Y355346D01*
X1559204Y358698D01*
X1546707Y360730D01*
X1520952Y365607D01*
X1507744Y368401D01*
X1487728Y373024D01*
X1460703Y379933D01*
X1433677Y387654D01*
X1420266Y391769D01*
X1400352Y398272D01*
X1374394Y407466D01*
X1361795Y412292D01*
X1298194Y437794D01*
X1183995Y504647D01*
G37*
G36*
X283311Y449681D02*
G01*
X249986Y449173D01*
X166014Y446024D01*
X147167Y436575D01*
X138988Y431749D01*
X134823Y428802D01*
X126898Y422300D01*
X123393Y418998D01*
X120345Y415747D01*
X117856Y412648D01*
X107442Y398221D01*
X101295Y329946D01*
X150723Y329946D01*
X160528Y387908D01*
X187960Y401929D01*
X330809Y401929D01*
X358292Y387908D01*
X371398Y349351D01*
X372008Y157530D01*
X356412Y119786D01*
X314350Y107950D01*
X197866Y107899D01*
X163525Y119989D01*
X156819Y144932D01*
X154787Y156159D01*
X153263Y168808D01*
X152450Y181305D01*
X152298Y213360D01*
X267614Y213360D01*
X267614Y257759D01*
X102819Y257759D01*
X102819Y138023D01*
X127558Y89154D01*
X158546Y66294D01*
X326085Y62534D01*
X374091Y75590D01*
X409346Y111201D01*
X421385Y155092D01*
X421436Y350113D01*
X404825Y406603D01*
X366725Y440385D01*
X322122Y447548D01*
X311505Y449021D01*
X302717Y449478D01*
G37*
G36*
X-243992Y449072D02*
G01*
X-259130Y448818D01*
X-273456Y448259D01*
X-322884Y445516D01*
X-361035Y427075D01*
X-380949Y392074D01*
X-387553Y335483D01*
X-337261Y335483D01*
X-329793Y386080D01*
X-304139Y403047D01*
X-172161Y399288D01*
X-152603Y379476D01*
X-152603Y308102D01*
X-170840Y289661D01*
X-328371Y279247D01*
X-351282Y267716D01*
X-359714Y261975D01*
X-367893Y255219D01*
X-371551Y251714D01*
X-374802Y248208D01*
X-377444Y244856D01*
X-388772Y229209D01*
X-388772Y121767D01*
X-369366Y85902D01*
X-333857Y66446D01*
X-169062Y62890D01*
X-119633Y88493D01*
X-101447Y127355D01*
X-96774Y191160D01*
X-149860Y191160D01*
X-149860Y136906D01*
X-170840Y110693D01*
X-285242Y106933D01*
X-330352Y119227D01*
X-343357Y159156D01*
X-338124Y214172D01*
X-321208Y231343D01*
X-167386Y239674D01*
X-142189Y252526D01*
X-133045Y258622D01*
X-124358Y265684D01*
X-120548Y269290D01*
X-117195Y272846D01*
X-114503Y276199D01*
X-103174Y291896D01*
X-103225Y388213D01*
X-122580Y424078D01*
X-158089Y442772D01*
X-195935Y447395D01*
X-207721Y448259D01*
X-221488Y448818D01*
G37*
G36*
X966774Y446481D02*
G01*
X935075Y446430D01*
X837477Y191160D01*
X893826Y191160D01*
X893826Y195326D01*
X896467Y203962D01*
X914400Y253492D01*
X927455Y288290D01*
X940816Y323088D01*
X952246Y352196D01*
X963218Y378460D01*
X964590Y381050D01*
X968095Y384962D01*
X1040536Y191160D01*
X837477Y191160D01*
X790600Y68529D01*
X845769Y71831D01*
X873150Y146761D01*
X1057402Y146761D01*
X1084732Y71831D01*
X1141120Y68478D01*
X1120902Y120700D01*
X998474Y446481D01*
G37*
G36*
X487375Y446481D02*
G01*
X487375Y396544D01*
X685088Y396544D01*
X685088Y285546D01*
X492861Y285546D01*
X492861Y241096D01*
X685088Y241096D01*
X685088Y113436D01*
X487375Y113436D01*
X487375Y69037D01*
X740054Y69037D01*
X740054Y446481D01*
G37*
G36*
X-23520Y446481D02*
G01*
X-23520Y69037D01*
X25958Y69037D01*
X25958Y446481D01*
G37*
G36*
X1673860Y30175D02*
G01*
X1673860Y-19761D01*
X1723288Y-19761D01*
X1723288Y30175D01*
G37*
G36*
X1492605Y-8636D02*
G01*
X1492605Y-103022D01*
X1585976Y-103022D01*
X1585976Y-8636D01*
G37*
G36*
X1272895Y-86360D02*
G01*
X1272895Y-175158D01*
X1355293Y-175158D01*
X1355293Y-86360D01*
G37*
G36*
X781659Y-115824D02*
G01*
X780034Y-116281D01*
X779729Y-117297D01*
X780034Y-119075D01*
X782167Y-124764D01*
X786282Y-132943D01*
X792073Y-143205D01*
X799287Y-155194D01*
X807669Y-168452D01*
X817016Y-182626D01*
X826973Y-197205D01*
X837437Y-211886D01*
X848004Y-226263D01*
X863142Y-245668D01*
X878992Y-264769D01*
X895451Y-283464D01*
X908202Y-297230D01*
X930198Y-319684D01*
X939190Y-328422D01*
X962304Y-349808D01*
X981252Y-366268D01*
X1005535Y-386080D01*
X1025347Y-401218D01*
X1045514Y-415747D01*
X1071067Y-432866D01*
X1091742Y-445770D01*
X1112570Y-457911D01*
X1123086Y-463651D01*
X1167790Y-487273D01*
X1220165Y-459079D01*
X1240790Y-447192D01*
X1261770Y-434035D01*
X1282852Y-419760D01*
X1293469Y-412242D01*
X1309319Y-400558D01*
X1330401Y-384200D01*
X1351229Y-367182D01*
X1371701Y-349504D01*
X1391716Y-331368D01*
X1415897Y-308152D01*
X1434388Y-289356D01*
X1451965Y-270408D01*
X1468628Y-251510D01*
X1487779Y-228041D01*
X1501698Y-209600D01*
X1508150Y-200507D01*
X1519885Y-182676D01*
X1525219Y-173990D01*
X1530096Y-165455D01*
X1542846Y-140868D01*
X1529892Y-144475D01*
X1519682Y-146456D01*
X1487881Y-151638D01*
X1421536Y-161188D01*
X1399235Y-164592D01*
X1399235Y-241757D01*
X1272895Y-241757D01*
X1272895Y-176225D01*
X1168501Y-172415D01*
X1168501Y-241757D01*
X1272895Y-241757D01*
X1272895Y-313944D01*
X1201470Y-313944D01*
X1201470Y-241757D01*
X1168501Y-241757D01*
X1168501Y-408279D01*
X1161897Y-408127D01*
X1156614Y-406958D01*
X1150366Y-404622D01*
X1143203Y-401269D01*
X1135227Y-396900D01*
X1126540Y-391617D01*
X1117142Y-385470D01*
X1107135Y-378510D01*
X1096568Y-370840D01*
X1085545Y-362508D01*
X1062431Y-344068D01*
X1038352Y-323748D01*
X1026058Y-313080D01*
X995476Y-285343D01*
X971600Y-262585D01*
X948893Y-239928D01*
X927912Y-217932D01*
X918260Y-207314D01*
X909269Y-197053D01*
X900988Y-187198D01*
X893521Y-177850D01*
X886866Y-169011D01*
X881227Y-160832D01*
X876553Y-153314D01*
X872947Y-146558D01*
X870559Y-140563D01*
X869289Y-139344D01*
X866292Y-137769D01*
X856183Y-133858D01*
X842162Y-129387D01*
X826058Y-124815D01*
X809904Y-120751D01*
X795578Y-117602D01*
X789686Y-116535D01*
X784961Y-115925D01*
G37*
G36*
X1564030Y-214020D02*
G01*
X1563979Y-277825D01*
X1624431Y-274066D01*
X1624431Y-252831D01*
X1624685Y-243890D01*
X1625396Y-235254D01*
X1626463Y-227888D01*
X1627784Y-222808D01*
X1631086Y-214020D01*
G37*
D10*
X7099300Y2338646D02*
G01*
X7099300Y2144684D01*
X7038340Y2338646D02*
G01*
X7038340Y2144684D01*
X7038340Y2338646D02*
G01*
X6955213Y2338646D01*
X6927504Y2329411D01*
X6918266Y2320175D01*
X6909031Y2301702D01*
X6909031Y2283228D01*
X6918266Y2264755D01*
X6927504Y2255520D01*
X6955213Y2246284D01*
X7038340Y2246284D01*
X6973684Y2246284D02*
G01*
X6909031Y2144684D01*
X6705831Y2338646D02*
G01*
X6705831Y2144684D01*
X6705831Y2144684D02*
G01*
X6594995Y2144684D01*
X6534035Y2338646D02*
G01*
X6534035Y2144684D01*
X6534035Y2338646D02*
G01*
X6413962Y2338646D01*
X6534035Y2246284D02*
G01*
X6460144Y2246284D01*
X6534035Y2144684D02*
G01*
X6413962Y2144684D01*
X6353002Y2338646D02*
G01*
X6353002Y2144684D01*
X6353002Y2338646D02*
G01*
X6288346Y2338646D01*
X6260637Y2329411D01*
X6242164Y2310937D01*
X6232928Y2292464D01*
X6223693Y2264755D01*
X6223693Y2218575D01*
X6232928Y2190864D01*
X6242164Y2172393D01*
X6260637Y2153920D01*
X6288346Y2144684D01*
X6353002Y2144684D01*
D11*
X7224567Y2527762D02*
G01*
X7229764Y2538153D01*
X7240155Y2548544D01*
X7250544Y2553738D01*
X7271326Y2553738D01*
X7281717Y2548544D01*
X7292108Y2538153D01*
X7297305Y2527762D01*
X7302500Y2512174D01*
X7302500Y2486197D01*
X7297305Y2470612D01*
X7292108Y2460221D01*
X7281717Y2449829D01*
X7271326Y2444635D01*
X7250544Y2444635D01*
X7240155Y2449829D01*
X7229764Y2460221D01*
X7224567Y2470612D01*
X7224567Y2486197D01*
X7250544Y2486197D02*
G01*
X7224567Y2486197D01*
X7190277Y2553738D02*
G01*
X7190277Y2444635D01*
X7190277Y2553738D02*
G01*
X7117542Y2444635D01*
X7117542Y2553738D02*
G01*
X7117542Y2444635D01*
X7083252Y2553738D02*
G01*
X7083252Y2444635D01*
X7083252Y2553738D02*
G01*
X7046884Y2553738D01*
X7031296Y2548544D01*
X7020907Y2538153D01*
X7015711Y2527762D01*
X7010516Y2512174D01*
X7010516Y2486197D01*
X7015711Y2470612D01*
X7020907Y2460221D01*
X7031296Y2449829D01*
X7046884Y2444635D01*
X7083252Y2444635D01*
D10*
X8559800Y2325946D02*
G01*
X8559800Y2131984D01*
X8559800Y2325946D02*
G01*
X8476673Y2325946D01*
X8448964Y2316711D01*
X8439726Y2307475D01*
X8430491Y2289002D01*
X8430491Y2261293D01*
X8439726Y2242820D01*
X8448964Y2233584D01*
X8476673Y2224346D01*
X8559800Y2224346D01*
X8369531Y2325946D02*
G01*
X8369531Y2131984D01*
X8308571Y2325946D02*
G01*
X8308571Y2131984D01*
X8308571Y2325946D02*
G01*
X8188497Y2325946D01*
X8308571Y2233584D02*
G01*
X8234679Y2233584D01*
X8308571Y2131984D02*
G01*
X8188497Y2131984D01*
X7998228Y2325946D02*
G01*
X8127537Y2131984D01*
X8127537Y2325946D02*
G01*
X7998228Y2325946D01*
X8127537Y2131984D02*
G01*
X7998228Y2131984D01*
X7881851Y2325946D02*
G01*
X7900324Y2316711D01*
X7918795Y2298237D01*
X7928033Y2279764D01*
X7937268Y2252055D01*
X7937268Y2205875D01*
X7928033Y2178164D01*
X7918795Y2159693D01*
X7900324Y2141220D01*
X7881851Y2131984D01*
X7844904Y2131984D01*
X7826433Y2141220D01*
X7807959Y2159693D01*
X7798724Y2178164D01*
X7789486Y2205875D01*
X7789486Y2252055D01*
X7798724Y2279764D01*
X7807959Y2298237D01*
X7826433Y2316711D01*
X7844904Y2325946D01*
X7881851Y2325946D01*
X7251700Y1322646D02*
G01*
X7251700Y1128684D01*
X7251700Y1322646D02*
G01*
X7168573Y1322646D01*
X7140864Y1313411D01*
X7131626Y1304175D01*
X7122391Y1285702D01*
X7122391Y1267228D01*
X7131626Y1248755D01*
X7140864Y1239520D01*
X7168573Y1230284D01*
X7251700Y1230284D02*
G01*
X7168573Y1230284D01*
X7140864Y1221046D01*
X7131626Y1211811D01*
X7122391Y1193337D01*
X7122391Y1165628D01*
X7131626Y1147155D01*
X7140864Y1137920D01*
X7168573Y1128684D01*
X7251700Y1128684D01*
X7061431Y1322646D02*
G01*
X7061431Y1184102D01*
X7052195Y1156393D01*
X7033722Y1137920D01*
X7006013Y1128684D01*
X6987540Y1128684D01*
X6959831Y1137920D01*
X6941357Y1156393D01*
X6932122Y1184102D01*
X6932122Y1322646D01*
X6806506Y1322646D02*
G01*
X6806506Y1128684D01*
X6871162Y1322646D02*
G01*
X6741853Y1322646D01*
X6616237Y1322646D02*
G01*
X6616237Y1128684D01*
X6680893Y1322646D02*
G01*
X6551584Y1322646D01*
X6435204Y1322646D02*
G01*
X6453677Y1313411D01*
X6472151Y1294937D01*
X6481386Y1276464D01*
X6490624Y1248755D01*
X6490624Y1202575D01*
X6481386Y1174864D01*
X6472151Y1156393D01*
X6453677Y1137920D01*
X6435204Y1128684D01*
X6398259Y1128684D01*
X6379786Y1137920D01*
X6361315Y1156393D01*
X6352077Y1174864D01*
X6342842Y1202575D01*
X6342842Y1248755D01*
X6352077Y1276464D01*
X6361315Y1294937D01*
X6379786Y1313411D01*
X6398259Y1322646D01*
X6435204Y1322646D01*
X6281882Y1322646D02*
G01*
X6281882Y1128684D01*
X6281882Y1322646D02*
G01*
X6152573Y1128684D01*
X6152573Y1322646D02*
G01*
X6152573Y1128684D01*
X6732155Y-1517535D02*
G01*
X6741391Y-1499062D01*
X6759864Y-1480588D01*
X6778335Y-1471353D01*
X6815282Y-1471353D01*
X6833755Y-1480588D01*
X6852226Y-1499062D01*
X6861464Y-1517535D01*
X6870700Y-1545244D01*
X6870700Y-1591424D01*
X6861464Y-1619135D01*
X6852226Y-1637606D01*
X6833755Y-1656079D01*
X6815282Y-1665315D01*
X6778335Y-1665315D01*
X6759864Y-1656079D01*
X6741391Y-1637606D01*
X6732155Y-1619135D01*
X6732155Y-1591424D01*
X6778335Y-1591424D02*
G01*
X6732155Y-1591424D01*
X6671195Y-1471353D02*
G01*
X6671195Y-1665315D01*
X6671195Y-1471353D02*
G01*
X6541884Y-1665315D01*
X6541884Y-1471353D02*
G01*
X6541884Y-1665315D01*
X6480924Y-1471353D02*
G01*
X6480924Y-1665315D01*
X6480924Y-1471353D02*
G01*
X6416271Y-1471353D01*
X6388562Y-1480588D01*
X6370088Y-1499062D01*
X6360853Y-1517535D01*
X6351615Y-1545244D01*
X6351615Y-1591424D01*
X6360853Y-1619135D01*
X6370088Y-1637606D01*
X6388562Y-1656079D01*
X6416271Y-1665315D01*
X6480924Y-1665315D01*
X7028873Y-2311862D02*
G01*
X7028873Y-2478115D01*
X7112000Y-2394988D02*
G01*
X6945744Y-2394988D01*
X6773948Y-2284153D02*
G01*
X6866313Y-2284153D01*
X6875548Y-2367279D01*
X6866313Y-2358044D01*
X6838604Y-2348806D01*
X6810895Y-2348806D01*
X6783184Y-2358044D01*
X6764713Y-2376515D01*
X6755475Y-2404224D01*
X6755475Y-2422697D01*
X6764713Y-2450406D01*
X6783184Y-2468879D01*
X6810895Y-2478115D01*
X6838604Y-2478115D01*
X6866313Y-2468879D01*
X6875548Y-2459644D01*
X6884784Y-2441171D01*
X6694515Y-2284153D02*
G01*
X6620624Y-2478115D01*
X6546735Y-2284153D02*
G01*
X6620624Y-2478115D01*
X6374937Y-2284153D02*
G01*
X6467302Y-2284153D01*
X6476537Y-2367279D01*
X6467302Y-2358044D01*
X6439593Y-2348806D01*
X6411884Y-2348806D01*
X6384175Y-2358044D01*
X6365702Y-2376515D01*
X6356464Y-2404224D01*
X6356464Y-2422697D01*
X6365702Y-2450406D01*
X6384175Y-2468879D01*
X6411884Y-2478115D01*
X6439593Y-2478115D01*
X6467302Y-2468879D01*
X6476537Y-2459644D01*
X6485775Y-2441171D01*
D12*
X5283200Y-1496855D02*
G01*
X5283200Y-1606626D01*
X5283200Y-1496855D02*
G01*
X5236154Y-1496855D01*
X5220472Y-1502082D01*
X5215244Y-1507309D01*
X5210017Y-1517764D01*
X5210017Y-1528218D01*
X5215244Y-1538673D01*
X5220472Y-1543900D01*
X5236154Y-1549128D01*
X5283200Y-1549128D01*
X5246608Y-1549128D02*
G01*
X5210017Y-1606626D01*
X5133700Y-1496855D02*
G01*
X5175519Y-1606626D01*
X5133700Y-1496855D02*
G01*
X5091882Y-1606626D01*
X5159837Y-1570037D02*
G01*
X5107564Y-1570037D01*
X4984201Y-1512536D02*
G01*
X4994656Y-1502082D01*
X5010337Y-1496855D01*
X5031244Y-1496855D01*
X5046926Y-1502082D01*
X5057381Y-1512536D01*
X5057381Y-1522991D01*
X5052153Y-1533446D01*
X5046926Y-1538673D01*
X5036472Y-1543900D01*
X5005110Y-1554355D01*
X4994656Y-1559582D01*
X4989428Y-1564810D01*
X4984201Y-1575264D01*
X4984201Y-1590944D01*
X4994656Y-1601398D01*
X5010337Y-1606626D01*
X5031244Y-1606626D01*
X5046926Y-1601398D01*
X5057381Y-1590944D01*
X4949700Y-1496855D02*
G01*
X4949700Y-1606626D01*
X4949700Y-1496855D02*
G01*
X4902654Y-1496855D01*
X4886972Y-1502082D01*
X4881745Y-1507309D01*
X4876518Y-1517764D01*
X4876518Y-1533446D01*
X4881745Y-1543900D01*
X4886972Y-1549128D01*
X4902654Y-1554355D01*
X4949700Y-1554355D01*
X4842019Y-1496855D02*
G01*
X4842019Y-1606626D01*
X4842019Y-1496855D02*
G01*
X4794973Y-1496855D01*
X4779291Y-1502082D01*
X4774064Y-1507309D01*
X4768837Y-1517764D01*
X4768837Y-1528218D01*
X4774064Y-1538673D01*
X4779291Y-1543900D01*
X4794973Y-1549128D01*
X4842019Y-1549128D02*
G01*
X4794973Y-1549128D01*
X4779291Y-1554355D01*
X4774064Y-1559582D01*
X4768837Y-1570037D01*
X4768837Y-1585719D01*
X4774064Y-1596171D01*
X4779291Y-1601398D01*
X4794973Y-1606626D01*
X4842019Y-1606626D01*
X4734336Y-1496855D02*
G01*
X4734336Y-1606626D01*
X4734336Y-1496855D02*
G01*
X4666383Y-1496855D01*
X4734336Y-1549128D02*
G01*
X4692520Y-1549128D01*
X4734336Y-1606626D02*
G01*
X4666383Y-1606626D01*
X4631883Y-1496855D02*
G01*
X4631883Y-1606626D01*
X4631883Y-1496855D02*
G01*
X4584837Y-1496855D01*
X4569155Y-1502082D01*
X4563927Y-1507309D01*
X4558700Y-1517764D01*
X4558700Y-1528218D01*
X4563927Y-1538673D01*
X4569155Y-1543900D01*
X4584837Y-1549128D01*
X4631883Y-1549128D01*
X4595291Y-1549128D02*
G01*
X4558700Y-1606626D01*
X4524202Y-1496855D02*
G01*
X4524202Y-1606626D01*
X4524202Y-1496855D02*
G01*
X4477156Y-1496855D01*
X4461474Y-1502082D01*
X4456247Y-1507309D01*
X4451019Y-1517764D01*
X4451019Y-1528218D01*
X4456247Y-1538673D01*
X4461474Y-1543900D01*
X4477156Y-1549128D01*
X4524202Y-1549128D01*
X4487611Y-1549128D02*
G01*
X4451019Y-1606626D01*
X4416518Y-1496855D02*
G01*
X4374702Y-1549128D01*
X4374702Y-1606626D01*
X4332884Y-1496855D02*
G01*
X4374702Y-1549128D01*
X5283200Y-1713453D02*
G01*
X5283200Y-1823227D01*
X5283200Y-1713453D02*
G01*
X5236154Y-1713453D01*
X5220472Y-1718680D01*
X5215244Y-1723908D01*
X5210017Y-1734362D01*
X5210017Y-1750044D01*
X5215244Y-1760499D01*
X5220472Y-1765726D01*
X5236154Y-1770954D01*
X5283200Y-1770954D01*
X5175519Y-1713453D02*
G01*
X5175519Y-1823227D01*
X5060518Y-1713453D02*
G01*
X5060518Y-1823227D01*
X5060518Y-1713453D02*
G01*
X5013472Y-1713453D01*
X4997790Y-1718680D01*
X4992563Y-1723908D01*
X4987335Y-1734362D01*
X4987335Y-1750044D01*
X4992563Y-1760499D01*
X4997790Y-1765726D01*
X5013472Y-1770954D01*
X5060518Y-1770954D01*
X4952837Y-1713453D02*
G01*
X4952837Y-1823227D01*
X4839929Y-1739590D02*
G01*
X4845156Y-1729135D01*
X4855608Y-1718680D01*
X4866063Y-1713453D01*
X4886972Y-1713453D01*
X4897427Y-1718680D01*
X4907881Y-1729135D01*
X4913109Y-1739590D01*
X4918336Y-1755272D01*
X4918336Y-1781408D01*
X4913109Y-1797090D01*
X4907881Y-1807545D01*
X4897427Y-1817999D01*
X4886972Y-1823227D01*
X4866063Y-1823227D01*
X4855608Y-1817999D01*
X4845156Y-1807545D01*
X4839929Y-1797090D01*
X4774064Y-1713453D02*
G01*
X4784519Y-1718680D01*
X4794973Y-1729135D01*
X4800201Y-1739590D01*
X4805428Y-1755272D01*
X4805428Y-1781408D01*
X4800201Y-1797090D01*
X4794973Y-1807545D01*
X4784519Y-1817999D01*
X4774064Y-1823227D01*
X4753155Y-1823227D01*
X4742700Y-1817999D01*
X4732246Y-1807545D01*
X4727018Y-1797090D01*
X4721791Y-1781408D01*
X4721791Y-1755272D01*
X4727018Y-1739590D01*
X4732246Y-1729135D01*
X4742700Y-1718680D01*
X4753155Y-1713453D01*
X4774064Y-1713453D01*
X4570201Y-1692544D02*
G01*
X4580656Y-1702998D01*
X4591110Y-1718680D01*
X4601565Y-1739590D01*
X4606792Y-1765726D01*
X4606792Y-1786636D01*
X4601565Y-1812772D01*
X4591110Y-1833681D01*
X4580656Y-1849363D01*
X4570201Y-1859818D01*
X4535700Y-1713453D02*
G01*
X4535700Y-1823227D01*
X4535700Y-1713453D02*
G01*
X4488654Y-1713453D01*
X4472975Y-1718680D01*
X4467748Y-1723908D01*
X4462520Y-1734362D01*
X4462520Y-1744817D01*
X4467748Y-1755272D01*
X4472975Y-1760499D01*
X4488654Y-1765726D01*
X4535700Y-1765726D01*
X4499109Y-1765726D02*
G01*
X4462520Y-1823227D01*
X4428020Y-1713453D02*
G01*
X4428020Y-1823227D01*
X4428020Y-1713453D02*
G01*
X4380974Y-1713453D01*
X4365292Y-1718680D01*
X4360064Y-1723908D01*
X4354837Y-1734362D01*
X4354837Y-1750044D01*
X4360064Y-1760499D01*
X4365292Y-1765726D01*
X4380974Y-1770954D01*
X4428020Y-1770954D01*
X4315112Y-1739590D02*
G01*
X4315112Y-1734362D01*
X4309884Y-1723908D01*
X4304657Y-1718680D01*
X4294202Y-1713453D01*
X4273293Y-1713453D01*
X4262838Y-1718680D01*
X4257611Y-1723908D01*
X4252384Y-1734362D01*
X4252384Y-1744817D01*
X4257611Y-1755272D01*
X4268066Y-1770954D01*
X4320339Y-1823227D01*
X4247156Y-1823227D01*
X4181292Y-1713453D02*
G01*
X4196974Y-1718680D01*
X4207428Y-1734362D01*
X4212656Y-1760499D01*
X4212656Y-1776181D01*
X4207428Y-1802317D01*
X4196974Y-1817999D01*
X4181292Y-1823227D01*
X4170837Y-1823227D01*
X4155158Y-1817999D01*
X4144703Y-1802317D01*
X4139476Y-1776181D01*
X4139476Y-1760499D01*
X4144703Y-1734362D01*
X4155158Y-1718680D01*
X4170837Y-1713453D01*
X4181292Y-1713453D01*
X4052702Y-1713453D02*
G01*
X4104975Y-1786636D01*
X4026565Y-1786636D01*
X4052702Y-1713453D02*
G01*
X4052702Y-1823227D01*
X3960703Y-1713453D02*
G01*
X3976385Y-1718680D01*
X3986839Y-1734362D01*
X3992067Y-1760499D01*
X3992067Y-1776181D01*
X3986839Y-1802317D01*
X3976385Y-1817999D01*
X3960703Y-1823227D01*
X3950248Y-1823227D01*
X3934566Y-1817999D01*
X3924112Y-1802317D01*
X3918884Y-1776181D01*
X3918884Y-1760499D01*
X3924112Y-1734362D01*
X3934566Y-1718680D01*
X3950248Y-1713453D01*
X3960703Y-1713453D01*
X3884383Y-1692544D02*
G01*
X3873929Y-1702998D01*
X3863474Y-1718680D01*
X3853019Y-1739590D01*
X3847792Y-1765726D01*
X3847792Y-1786636D01*
X3853019Y-1812772D01*
X3863474Y-1833681D01*
X3873929Y-1849363D01*
X3884383Y-1859818D01*
D10*
X-1052944Y1543164D02*
G01*
X-1043708Y1561637D01*
X-1025235Y1580111D01*
X-1006764Y1589346D01*
X-969817Y1589346D01*
X-951344Y1580111D01*
X-932873Y1561637D01*
X-923635Y1543164D01*
X-914400Y1515455D01*
X-914400Y1469275D01*
X-923635Y1441564D01*
X-932873Y1423093D01*
X-951344Y1404620D01*
X-969817Y1395384D01*
X-1006764Y1395384D01*
X-1025235Y1404620D01*
X-1043708Y1423093D01*
X-1052944Y1441564D01*
X-1052944Y1469275D01*
X-1006764Y1469275D02*
G01*
X-1052944Y1469275D01*
X-1113904Y1589346D02*
G01*
X-1113904Y1395384D01*
X-1113904Y1589346D02*
G01*
X-1197033Y1589346D01*
X-1224742Y1580111D01*
X-1233977Y1570875D01*
X-1243215Y1552402D01*
X-1243215Y1524693D01*
X-1233977Y1506220D01*
X-1224742Y1496984D01*
X-1197033Y1487746D01*
X-1113904Y1487746D01*
X-1304175Y1552402D02*
G01*
X-1322646Y1561637D01*
X-1350355Y1589346D01*
X-1350355Y1395384D01*
X-1522153Y1561637D02*
G01*
X-1512915Y1580111D01*
X-1485206Y1589346D01*
X-1466735Y1589346D01*
X-1439024Y1580111D01*
X-1420553Y1552402D01*
X-1411315Y1506220D01*
X-1411315Y1460037D01*
X-1420553Y1423093D01*
X-1439024Y1404620D01*
X-1466735Y1395384D01*
X-1475971Y1395384D01*
X-1503679Y1404620D01*
X-1522153Y1423093D01*
X-1531388Y1450802D01*
X-1531388Y1460037D01*
X-1522153Y1487746D01*
X-1503679Y1506220D01*
X-1475971Y1515455D01*
X-1466735Y1515455D01*
X-1439024Y1506220D01*
X-1420553Y1487746D01*
X-1411315Y1460037D01*
X-1103744Y552564D02*
G01*
X-1094508Y571037D01*
X-1076035Y589511D01*
X-1057564Y598746D01*
X-1020617Y598746D01*
X-1002144Y589511D01*
X-983673Y571037D01*
X-974435Y552564D01*
X-965200Y524855D01*
X-965200Y478675D01*
X-974435Y450964D01*
X-983673Y432493D01*
X-1002144Y414020D01*
X-1020617Y404784D01*
X-1057564Y404784D01*
X-1076035Y414020D01*
X-1094508Y432493D01*
X-1103744Y450964D01*
X-1103744Y478675D01*
X-1057564Y478675D02*
G01*
X-1103744Y478675D01*
X-1164704Y598746D02*
G01*
X-1164704Y404784D01*
X-1164704Y598746D02*
G01*
X-1247833Y598746D01*
X-1275542Y589511D01*
X-1284777Y580275D01*
X-1294015Y561802D01*
X-1294015Y534093D01*
X-1284777Y515620D01*
X-1275542Y506384D01*
X-1247833Y497146D01*
X-1164704Y497146D01*
X-1354975Y561802D02*
G01*
X-1373446Y571037D01*
X-1401155Y598746D01*
X-1401155Y404784D01*
X-1591424Y598746D02*
G01*
X-1499062Y404784D01*
X-1462115Y598746D02*
G01*
X-1591424Y598746D01*
X-1116444Y-438035D02*
G01*
X-1107208Y-419562D01*
X-1088735Y-401088D01*
X-1070264Y-391853D01*
X-1033317Y-391853D01*
X-1014844Y-401088D01*
X-996373Y-419562D01*
X-987135Y-438035D01*
X-977900Y-465744D01*
X-977900Y-511924D01*
X-987135Y-539635D01*
X-996373Y-558106D01*
X-1014844Y-576579D01*
X-1033317Y-585815D01*
X-1070264Y-585815D01*
X-1088735Y-576579D01*
X-1107208Y-558106D01*
X-1116444Y-539635D01*
X-1116444Y-511924D01*
X-1070264Y-511924D02*
G01*
X-1116444Y-511924D01*
X-1177404Y-391853D02*
G01*
X-1177404Y-585815D01*
X-1177404Y-391853D02*
G01*
X-1260533Y-391853D01*
X-1288242Y-401088D01*
X-1297477Y-410324D01*
X-1306715Y-428797D01*
X-1306715Y-456506D01*
X-1297477Y-474979D01*
X-1288242Y-484215D01*
X-1260533Y-493453D01*
X-1177404Y-493453D01*
X-1367675Y-428797D02*
G01*
X-1386146Y-419562D01*
X-1413855Y-391853D01*
X-1413855Y-585815D01*
X-1520997Y-391853D02*
G01*
X-1493288Y-401088D01*
X-1484053Y-419562D01*
X-1484053Y-438035D01*
X-1493288Y-456506D01*
X-1511762Y-465744D01*
X-1548706Y-474979D01*
X-1576415Y-484215D01*
X-1594888Y-502688D01*
X-1604124Y-521162D01*
X-1604124Y-548871D01*
X-1594888Y-567344D01*
X-1585653Y-576579D01*
X-1557944Y-585815D01*
X-1520997Y-585815D01*
X-1493288Y-576579D01*
X-1484053Y-567344D01*
X-1474815Y-548871D01*
X-1474815Y-521162D01*
X-1484053Y-502688D01*
X-1502524Y-484215D01*
X-1530235Y-474979D01*
X-1567179Y-465744D01*
X-1585653Y-456506D01*
X-1594888Y-438035D01*
X-1594888Y-419562D01*
X-1585653Y-401088D01*
X-1557944Y-391853D01*
X-1520997Y-391853D01*
X-1129144Y-1454035D02*
G01*
X-1119908Y-1435562D01*
X-1101435Y-1417088D01*
X-1082964Y-1407853D01*
X-1046017Y-1407853D01*
X-1027544Y-1417088D01*
X-1009073Y-1435562D01*
X-999835Y-1454035D01*
X-990600Y-1481744D01*
X-990600Y-1527924D01*
X-999835Y-1555635D01*
X-1009073Y-1574106D01*
X-1027544Y-1592579D01*
X-1046017Y-1601815D01*
X-1082964Y-1601815D01*
X-1101435Y-1592579D01*
X-1119908Y-1574106D01*
X-1129144Y-1555635D01*
X-1129144Y-1527924D01*
X-1082964Y-1527924D02*
G01*
X-1129144Y-1527924D01*
X-1190104Y-1407853D02*
G01*
X-1190104Y-1601815D01*
X-1190104Y-1407853D02*
G01*
X-1273233Y-1407853D01*
X-1300942Y-1417088D01*
X-1310177Y-1426324D01*
X-1319415Y-1444797D01*
X-1319415Y-1472506D01*
X-1310177Y-1490979D01*
X-1300942Y-1500215D01*
X-1273233Y-1509453D01*
X-1190104Y-1509453D01*
X-1380375Y-1444797D02*
G01*
X-1398846Y-1435562D01*
X-1426555Y-1407853D01*
X-1426555Y-1601815D01*
X-1607588Y-1472506D02*
G01*
X-1598353Y-1500215D01*
X-1579879Y-1518688D01*
X-1552171Y-1527924D01*
X-1542935Y-1527924D01*
X-1515224Y-1518688D01*
X-1496753Y-1500215D01*
X-1487515Y-1472506D01*
X-1487515Y-1463271D01*
X-1496753Y-1435562D01*
X-1515224Y-1417088D01*
X-1542935Y-1407853D01*
X-1552171Y-1407853D01*
X-1579879Y-1417088D01*
X-1598353Y-1435562D01*
X-1607588Y-1472506D01*
X-1607588Y-1518688D01*
X-1598353Y-1564871D01*
X-1579879Y-1592579D01*
X-1552171Y-1601815D01*
X-1533697Y-1601815D01*
X-1505988Y-1592579D01*
X-1496753Y-1574106D01*
X-2030844Y2444864D02*
G01*
X-2021608Y2463337D01*
X-2003135Y2481811D01*
X-1984664Y2491046D01*
X-1947717Y2491046D01*
X-1929244Y2481811D01*
X-1910773Y2463337D01*
X-1901535Y2444864D01*
X-1892300Y2417155D01*
X-1892300Y2370975D01*
X-1901535Y2343264D01*
X-1910773Y2324793D01*
X-1929244Y2306320D01*
X-1947717Y2297084D01*
X-1984664Y2297084D01*
X-2003135Y2306320D01*
X-2021608Y2324793D01*
X-2030844Y2343264D01*
X-2030844Y2370975D01*
X-1984664Y2370975D02*
G01*
X-2030844Y2370975D01*
X-2091804Y2491046D02*
G01*
X-2091804Y2297084D01*
X-2091804Y2491046D02*
G01*
X-2221115Y2297084D01*
X-2221115Y2491046D02*
G01*
X-2221115Y2297084D01*
X-2282075Y2491046D02*
G01*
X-2282075Y2297084D01*
X-2282075Y2491046D02*
G01*
X-2346728Y2491046D01*
X-2374437Y2481811D01*
X-2392911Y2463337D01*
X-2402146Y2444864D01*
X-2411384Y2417155D01*
X-2411384Y2370975D01*
X-2402146Y2343264D01*
X-2392911Y2324793D01*
X-2374437Y2306320D01*
X-2346728Y2297084D01*
X-2282075Y2297084D01*
D11*
X8723167Y2527762D02*
G01*
X8728364Y2538153D01*
X8738755Y2548544D01*
X8749144Y2553738D01*
X8769926Y2553738D01*
X8780317Y2548544D01*
X8790708Y2538153D01*
X8795905Y2527762D01*
X8801100Y2512174D01*
X8801100Y2486197D01*
X8795905Y2470612D01*
X8790708Y2460221D01*
X8780317Y2449829D01*
X8769926Y2444635D01*
X8749144Y2444635D01*
X8738755Y2449829D01*
X8728364Y2460221D01*
X8723167Y2470612D01*
X8723167Y2486197D01*
X8749144Y2486197D02*
G01*
X8723167Y2486197D01*
X8688877Y2553738D02*
G01*
X8688877Y2444635D01*
X8688877Y2553738D02*
G01*
X8616142Y2444635D01*
X8616142Y2553738D02*
G01*
X8616142Y2444635D01*
X8581852Y2553738D02*
G01*
X8581852Y2444635D01*
X8581852Y2553738D02*
G01*
X8545484Y2553738D01*
X8529896Y2548544D01*
X8519507Y2538153D01*
X8514311Y2527762D01*
X8509116Y2512174D01*
X8509116Y2486197D01*
X8514311Y2470612D01*
X8519507Y2460221D01*
X8529896Y2449829D01*
X8545484Y2444635D01*
X8581852Y2444635D01*
X7224567Y1537162D02*
G01*
X7229764Y1547553D01*
X7240155Y1557944D01*
X7250544Y1563138D01*
X7271326Y1563138D01*
X7281717Y1557944D01*
X7292108Y1547553D01*
X7297305Y1537162D01*
X7302500Y1521574D01*
X7302500Y1495597D01*
X7297305Y1480012D01*
X7292108Y1469621D01*
X7281717Y1459229D01*
X7271326Y1454035D01*
X7250544Y1454035D01*
X7240155Y1459229D01*
X7229764Y1469621D01*
X7224567Y1480012D01*
X7224567Y1495597D01*
X7250544Y1495597D02*
G01*
X7224567Y1495597D01*
X7190277Y1563138D02*
G01*
X7190277Y1454035D01*
X7190277Y1563138D02*
G01*
X7117542Y1454035D01*
X7117542Y1563138D02*
G01*
X7117542Y1454035D01*
X7083252Y1563138D02*
G01*
X7083252Y1454035D01*
X7083252Y1563138D02*
G01*
X7046884Y1563138D01*
X7031296Y1557944D01*
X7020907Y1547553D01*
X7015711Y1537162D01*
X7010516Y1521574D01*
X7010516Y1495597D01*
X7015711Y1480012D01*
X7020907Y1469621D01*
X7031296Y1459229D01*
X7046884Y1454035D01*
X7083252Y1454035D01*
D10*
X4532053Y1304635D02*
G01*
X4679835Y1304635D01*
X4707544Y1313873D01*
X4716779Y1323108D01*
X4726015Y1341582D01*
X4726015Y1360055D01*
X4716779Y1378526D01*
X4707544Y1387764D01*
X4679835Y1397000D01*
X4661362Y1397000D01*
X4532053Y1243675D02*
G01*
X4726015Y1243675D01*
X4726015Y1243675D02*
G01*
X4726015Y1132839D01*
X4578235Y933335D02*
G01*
X4559762Y942571D01*
X4541288Y961044D01*
X4532053Y979515D01*
X4532053Y1016462D01*
X4541288Y1034935D01*
X4559762Y1053406D01*
X4578235Y1062644D01*
X4605944Y1071879D01*
X4652124Y1071879D01*
X4679835Y1062644D01*
X4698306Y1053406D01*
X4716779Y1034935D01*
X4726015Y1016462D01*
X4726015Y979515D01*
X4716779Y961044D01*
X4698306Y942571D01*
X4679835Y933335D01*
X4532053Y780011D02*
G01*
X4679835Y780011D01*
X4707544Y789246D01*
X4716779Y798484D01*
X4726015Y816955D01*
X4726015Y835428D01*
X4716779Y853902D01*
X4707544Y863137D01*
X4679835Y872375D01*
X4661362Y872375D01*
X4532053Y719051D02*
G01*
X4726015Y719051D01*
X4726015Y719051D02*
G01*
X4726015Y608215D01*
X4578235Y408708D02*
G01*
X4559762Y417944D01*
X4541288Y436417D01*
X4532053Y454891D01*
X4532053Y491835D01*
X4541288Y510308D01*
X4559762Y528782D01*
X4578235Y538017D01*
X4605944Y547255D01*
X4652124Y547255D01*
X4679835Y538017D01*
X4698306Y528782D01*
X4716779Y510308D01*
X4726015Y491835D01*
X4726015Y454891D01*
X4716779Y436417D01*
X4698306Y417944D01*
X4679835Y408708D01*
X4532053Y255384D02*
G01*
X4679835Y255384D01*
X4707544Y264622D01*
X4716779Y273857D01*
X4726015Y292331D01*
X4726015Y310804D01*
X4716779Y329275D01*
X4707544Y338513D01*
X4679835Y347748D01*
X4661362Y347748D01*
X4532053Y194424D02*
G01*
X4726015Y194424D01*
X4726015Y194424D02*
G01*
X4726015Y83588D01*
X4578235Y-115915D02*
G01*
X4559762Y-106679D01*
X4541288Y-88206D01*
X4532053Y-69735D01*
X4532053Y-32788D01*
X4541288Y-14315D01*
X4559762Y4155D01*
X4578235Y13393D01*
X4605944Y22628D01*
X4652124Y22628D01*
X4679835Y13393D01*
X4698306Y4155D01*
X4716779Y-14315D01*
X4726015Y-32788D01*
X4726015Y-69735D01*
X4716779Y-88206D01*
X4698306Y-106679D01*
X4679835Y-115915D01*
X4532053Y-269239D02*
G01*
X4679835Y-269239D01*
X4707544Y-260004D01*
X4716779Y-250766D01*
X4726015Y-232295D01*
X4726015Y-213822D01*
X4716779Y-195348D01*
X4707544Y-186113D01*
X4679835Y-176875D01*
X4661362Y-176875D01*
X4532053Y-330200D02*
G01*
X4726015Y-330200D01*
X4726015Y-330200D02*
G01*
X4726015Y-441035D01*
X4578235Y-640542D02*
G01*
X4559762Y-631304D01*
X4541288Y-612833D01*
X4532053Y-594360D01*
X4532053Y-557415D01*
X4541288Y-538942D01*
X4559762Y-520468D01*
X4578235Y-511233D01*
X4605944Y-501995D01*
X4652124Y-501995D01*
X4679835Y-511233D01*
X4698306Y-520468D01*
X4716779Y-538942D01*
X4726015Y-557415D01*
X4726015Y-594360D01*
X4716779Y-612833D01*
X4698306Y-631304D01*
X4679835Y-640542D01*
D13*
X6322822Y2540507D02*
G01*
X6328156Y2550921D01*
X6338570Y2561336D01*
X6348729Y2566415D01*
X6369558Y2566415D01*
X6379972Y2561336D01*
X6390386Y2550921D01*
X6395720Y2540507D01*
X6400800Y2524760D01*
X6400800Y2498852D01*
X6395720Y2483357D01*
X6390386Y2472944D01*
X6379972Y2462529D01*
X6369558Y2457450D01*
X6348729Y2457450D01*
X6338570Y2462529D01*
X6328156Y2472944D01*
X6322822Y2483357D01*
X6322822Y2498852D01*
X6348729Y2498852D02*
G01*
X6322822Y2498852D01*
X6288531Y2566415D02*
G01*
X6288531Y2457450D01*
X6288531Y2566415D02*
G01*
X6241795Y2566415D01*
X6226302Y2561336D01*
X6220968Y2556002D01*
X6215888Y2545587D01*
X6215888Y2530094D01*
X6220968Y2519679D01*
X6226302Y2514600D01*
X6241795Y2509265D01*
X6288531Y2509265D01*
X6176263Y2540507D02*
G01*
X6176263Y2545587D01*
X6171184Y2556002D01*
X6165850Y2561336D01*
X6155690Y2566415D01*
X6134861Y2566415D01*
X6124447Y2561336D01*
X6119113Y2556002D01*
X6114034Y2545587D01*
X6114034Y2535173D01*
X6119113Y2524760D01*
X6129527Y2509265D01*
X6181597Y2457450D01*
X6108700Y2457450D01*
X6043422Y2566415D02*
G01*
X6058915Y2561336D01*
X6069329Y2545587D01*
X6074409Y2519679D01*
X6074409Y2504186D01*
X6069329Y2478023D01*
X6058915Y2462529D01*
X6043422Y2457450D01*
X6033008Y2457450D01*
X6017259Y2462529D01*
X6007100Y2478023D01*
X6001765Y2504186D01*
X6001765Y2519679D01*
X6007100Y2545587D01*
X6017259Y2561336D01*
X6033008Y2566415D01*
X6043422Y2566415D01*
X6335522Y1524507D02*
G01*
X6340856Y1534921D01*
X6351270Y1545336D01*
X6361429Y1550415D01*
X6382258Y1550415D01*
X6392672Y1545336D01*
X6403086Y1534921D01*
X6408420Y1524507D01*
X6413500Y1508760D01*
X6413500Y1482852D01*
X6408420Y1467357D01*
X6403086Y1456944D01*
X6392672Y1446529D01*
X6382258Y1441450D01*
X6361429Y1441450D01*
X6351270Y1446529D01*
X6340856Y1456944D01*
X6335522Y1467357D01*
X6335522Y1482852D01*
X6361429Y1482852D02*
G01*
X6335522Y1482852D01*
X6301231Y1550415D02*
G01*
X6301231Y1441450D01*
X6301231Y1550415D02*
G01*
X6254495Y1550415D01*
X6239002Y1545336D01*
X6233668Y1540002D01*
X6228588Y1529587D01*
X6228588Y1514094D01*
X6233668Y1503679D01*
X6239002Y1498600D01*
X6254495Y1493265D01*
X6301231Y1493265D01*
X6188963Y1524507D02*
G01*
X6188963Y1529587D01*
X6183884Y1540002D01*
X6178550Y1545336D01*
X6168390Y1550415D01*
X6147561Y1550415D01*
X6137147Y1545336D01*
X6131813Y1540002D01*
X6126734Y1529587D01*
X6126734Y1519173D01*
X6131813Y1508760D01*
X6142227Y1493265D01*
X6194297Y1441450D01*
X6121400Y1441450D01*
X6087109Y1529587D02*
G01*
X6076950Y1534921D01*
X6061202Y1550415D01*
X6061202Y1441450D01*
X7834167Y2527762D02*
G01*
X7839364Y2538153D01*
X7849755Y2548544D01*
X7860144Y2553738D01*
X7880926Y2553738D01*
X7891317Y2548544D01*
X7901708Y2538153D01*
X7906905Y2527762D01*
X7912100Y2512174D01*
X7912100Y2486197D01*
X7906905Y2470612D01*
X7901708Y2460221D01*
X7891317Y2449829D01*
X7880926Y2444635D01*
X7860144Y2444635D01*
X7849755Y2449829D01*
X7839364Y2460221D01*
X7834167Y2470612D01*
X7834167Y2486197D01*
X7860144Y2486197D02*
G01*
X7834167Y2486197D01*
X7799877Y2553738D02*
G01*
X7799877Y2444635D01*
X7799877Y2553738D02*
G01*
X7753118Y2553738D01*
X7737533Y2548544D01*
X7732336Y2543347D01*
X7727142Y2532956D01*
X7727142Y2517371D01*
X7732336Y2506979D01*
X7737533Y2501785D01*
X7753118Y2496588D01*
X7799877Y2496588D01*
X7687655Y2527762D02*
G01*
X7687655Y2532956D01*
X7682461Y2543347D01*
X7677264Y2548544D01*
X7666875Y2553738D01*
X7646093Y2553738D01*
X7635702Y2548544D01*
X7630505Y2543347D01*
X7625311Y2532956D01*
X7625311Y2522565D01*
X7630505Y2512174D01*
X7640896Y2496588D01*
X7692852Y2444635D01*
X7620114Y2444635D01*
X7580629Y2527762D02*
G01*
X7580629Y2532956D01*
X7575435Y2543347D01*
X7570238Y2548544D01*
X7559847Y2553738D01*
X7539065Y2553738D01*
X7528674Y2548544D01*
X7523479Y2543347D01*
X7518285Y2532956D01*
X7518285Y2522565D01*
X7523479Y2512174D01*
X7533871Y2496588D01*
X7585824Y2444635D01*
X7513088Y2444635D01*
D14*
X-2565400Y1895980D02*
G01*
X-2565400Y1727200D01*
X-2336800Y1498600D01*
X-2565400Y1212720D02*
G01*
X-2565400Y736600D01*
X-2336800Y508000D01*
X-2565400Y92580D02*
G01*
X-2565400Y-266700D01*
X-2324100Y-508000D01*
X-2463800Y2387600D02*
G01*
X-2565400Y2286000D01*
X-2565400Y-1308100D01*
X-2362200Y-1511300D01*
D15*
X4229100Y-2425700D02*
G01*
X4991100Y-2425700D01*
X4991100Y-1943100D01*
X4229100Y-1943100D01*
X4229100Y-2425700D01*
X4140200Y-2489200D02*
G01*
X5080000Y-2489200D01*
X5080000Y-2425700D01*
X4140200Y-2425700D01*
X4140200Y-2489200D01*
X3581400Y-2362200D02*
G01*
X5638800Y-2362200D01*
X5638800Y2730500D01*
X3581400Y2730500D01*
X3581400Y-2362200D01*
X-1753994Y1436496D02*
G01*
X-1817494Y1372996D01*
X-1944494Y1372996D01*
X-2007994Y1436496D01*
X-1753994Y1563496D02*
G01*
X-1817494Y1626996D01*
X-1944494Y1626996D01*
X-2007994Y1563496D01*
X-1753996Y1436496D02*
G01*
X-1753996Y1563496D01*
X-2007994Y1436496D02*
G01*
X-2071494Y1372996D01*
X-2198494Y1372996D01*
X-2261994Y1436496D01*
X-2007994Y1563496D02*
G01*
X-2071494Y1626996D01*
X-2198494Y1626996D01*
X-2261994Y1563496D01*
X-2261994Y1436496D02*
G01*
X-2261994Y1563496D01*
X-1753994Y436498D02*
G01*
X-1817494Y372998D01*
X-1944494Y372998D01*
X-2007994Y436498D01*
X-1753994Y563498D02*
G01*
X-1817494Y626998D01*
X-1944494Y626998D01*
X-2007994Y563498D01*
X-1753996Y436498D02*
G01*
X-1753996Y563498D01*
X-2007994Y436498D02*
G01*
X-2071494Y372998D01*
X-2198494Y372998D01*
X-2261994Y436498D01*
X-2007994Y563498D02*
G01*
X-2071494Y626998D01*
X-2198494Y626998D01*
X-2261994Y563498D01*
X-2261994Y436498D02*
G01*
X-2261994Y563498D01*
X-1753994Y-563498D02*
G01*
X-1817494Y-626998D01*
X-1944494Y-626998D01*
X-2007994Y-563498D01*
X-1753994Y-436498D02*
G01*
X-1817494Y-372998D01*
X-1944494Y-372998D01*
X-2007994Y-436498D01*
X-1753996Y-563498D02*
G01*
X-1753996Y-436498D01*
X-2007994Y-563498D02*
G01*
X-2071494Y-626998D01*
X-2198494Y-626998D01*
X-2261994Y-563498D01*
X-2007994Y-436498D02*
G01*
X-2071494Y-372998D01*
X-2198494Y-372998D01*
X-2261994Y-436498D01*
X-2261994Y-563498D02*
G01*
X-2261994Y-436498D01*
X-1753994Y-1563496D02*
G01*
X-1817494Y-1626996D01*
X-1944494Y-1626996D01*
X-2007994Y-1563496D01*
X-1753994Y-1436496D02*
G01*
X-1817494Y-1372996D01*
X-1944494Y-1372996D01*
X-2007994Y-1436496D01*
X-1753996Y-1563496D02*
G01*
X-1753996Y-1436496D01*
X-2007994Y-1563496D02*
G01*
X-2071494Y-1626996D01*
X-2198494Y-1626996D01*
X-2261994Y-1563496D01*
X-2007994Y-1436496D02*
G01*
X-2071494Y-1372996D01*
X-2198494Y-1372996D01*
X-2261994Y-1436496D01*
X-2261994Y-1563496D02*
G01*
X-2261994Y-1436496D01*
X6453985Y2563495D02*
G01*
X6517485Y2626995D01*
X6644485Y2626995D01*
X6707985Y2563495D01*
X6453985Y2436495D02*
G01*
X6517485Y2372995D01*
X6644485Y2372995D01*
X6707985Y2436495D01*
X6453987Y2563495D02*
G01*
X6453987Y2436495D01*
X6707985Y2563495D02*
G01*
X6771485Y2626995D01*
X6898485Y2626995D01*
X6961985Y2563495D01*
X6707985Y2436495D02*
G01*
X6771485Y2372995D01*
X6898485Y2372995D01*
X6961985Y2436495D01*
X6961985Y2563495D02*
G01*
X6961985Y2436495D01*
X6453985Y1563496D02*
G01*
X6517485Y1626996D01*
X6644485Y1626996D01*
X6707985Y1563496D01*
X6453985Y1436496D02*
G01*
X6517485Y1372996D01*
X6644485Y1372996D01*
X6707985Y1436496D01*
X6453987Y1563496D02*
G01*
X6453987Y1436496D01*
X6707985Y1563496D02*
G01*
X6771485Y1626996D01*
X6898485Y1626996D01*
X6961985Y1563496D01*
X6707985Y1436496D02*
G01*
X6771485Y1372996D01*
X6898485Y1372996D01*
X6961985Y1436496D01*
X6961985Y1563496D02*
G01*
X6961985Y1436496D01*
X6553200Y-2235202D02*
G01*
X6489700Y-2171702D01*
X6489700Y-2044702D01*
X6553200Y-1981202D01*
X6680200Y-2235202D02*
G01*
X6743700Y-2171702D01*
X6743700Y-2044702D01*
X6680200Y-1981202D01*
X6553200Y-2235200D02*
G01*
X6680200Y-2235200D01*
X6553200Y-1981202D02*
G01*
X6489700Y-1917702D01*
X6489700Y-1790702D01*
X6553200Y-1727202D01*
X6680200Y-1981202D02*
G01*
X6743700Y-1917702D01*
X6743700Y-1790702D01*
X6680200Y-1727202D01*
X6553200Y-1727202D02*
G01*
X6680200Y-1727202D01*
X7953982Y2563495D02*
G01*
X8017482Y2626995D01*
X8144482Y2626995D01*
X8207982Y2563495D01*
X7953982Y2436495D02*
G01*
X8017482Y2372995D01*
X8144482Y2372995D01*
X8207982Y2436495D01*
X7953984Y2563495D02*
G01*
X7953984Y2436495D01*
X8207982Y2563495D02*
G01*
X8271482Y2626995D01*
X8398482Y2626995D01*
X8461982Y2563495D01*
X8207982Y2436495D02*
G01*
X8271482Y2372995D01*
X8398482Y2372995D01*
X8461982Y2436495D01*
X8461982Y2563495D02*
G01*
X8461982Y2436495D01*
M02*
