G04 Layer: BottomSolderMaskLayer*
G04 EasyEDA v6.5.22, 2023-02-18 16:28:39*
G04 118ec262f11f47d2beab0417d1fdac3e,1e4d668faf9c44eeab1497739a8aa4b2,10*
G04 Gerber Generator version 0.2*
G04 Scale: 100 percent, Rotated: No, Reflected: No *
G04 Dimensions in millimeters *
G04 leading zeros omitted , absolute positions ,4 integer and 5 decimal *
%FSLAX45Y45*%
%MOMM*%

%AMMACRO1*1,1,$1,$2,$3*1,1,$1,$4,$5*1,1,$1,0-$2,0-$3*1,1,$1,0-$4,0-$5*20,1,$1,$2,$3,$4,$5,0*20,1,$1,$4,$5,0-$2,0-$3,0*20,1,$1,0-$2,0-$3,0-$4,0-$5,0*20,1,$1,0-$4,0-$5,$2,$3,0*4,1,4,$2,$3,$4,$5,0-$2,0-$3,0-$4,0-$5,$2,$3,0*%
%ADD10MACRO1,0.102X-1X-1X1X-1*%
%ADD11C,2.1020*%
%ADD12C,1.6256*%
%ADD13C,2.1016*%
%ADD14C,25.1015*%
%ADD15C,10.1016*%

%LPD*%
D10*
G01*
X3721100Y-2235200D03*
D11*
G01*
X3721100Y-1981200D03*
G01*
X3721100Y-1473200D03*
G01*
X3721100Y-1727200D03*
G01*
X3721100Y-711200D03*
G01*
X3721100Y-457200D03*
G01*
X3721100Y-965200D03*
G01*
X3721100Y-1219200D03*
G01*
X3721100Y812800D03*
G01*
X3721100Y1066800D03*
G01*
X3721100Y1574800D03*
G01*
X3721100Y1320800D03*
G01*
X3721100Y304800D03*
G01*
X3721100Y558800D03*
G01*
X3721100Y50800D03*
G01*
X3721100Y-203200D03*
G01*
X3721100Y2336800D03*
G01*
X3721100Y2590800D03*
G01*
X3721100Y2082800D03*
G01*
X3721100Y1828800D03*
G01*
X5499100Y1828800D03*
G01*
X5499100Y2082800D03*
G01*
X5499100Y2590800D03*
G01*
X5499100Y2336800D03*
G01*
X5499100Y-203200D03*
G01*
X5499100Y50800D03*
G01*
X5499100Y558800D03*
G01*
X5499100Y304800D03*
G01*
X5499100Y1320800D03*
G01*
X5499100Y1574800D03*
G01*
X5499100Y1066800D03*
G01*
X5499100Y812800D03*
G01*
X5499100Y-1219200D03*
G01*
X5499100Y-965200D03*
G01*
X5499100Y-457200D03*
G01*
X5499100Y-711200D03*
G01*
X5499100Y-1727200D03*
G01*
X5499100Y-1473200D03*
G01*
X5499100Y-1981200D03*
G01*
X5499100Y-2235200D03*
D12*
G01*
X-2134996Y1499996D03*
G01*
X-1880996Y1499996D03*
G01*
X-2134996Y499998D03*
G01*
X-1880996Y499998D03*
G01*
X-2134996Y-499998D03*
G01*
X-1880996Y-499998D03*
G01*
X-2134996Y-1499996D03*
G01*
X-1880996Y-1499996D03*
G01*
X6834987Y2499995D03*
G01*
X6580987Y2499995D03*
G01*
X6834987Y1499996D03*
G01*
X6580987Y1499996D03*
G01*
X6616700Y-1854200D03*
G01*
X6616700Y-2108200D03*
G01*
X8334984Y2499995D03*
G01*
X8080984Y2499995D03*
D13*
G01*
X6576517Y2004517D03*
G01*
X5894882Y1322882D03*
G01*
X-366217Y-2046782D03*
G01*
X315417Y-2728417D03*
G01*
X-1016000Y278790D03*
G01*
X-1016000Y-685190D03*
D12*
G01*
X-508000Y-762000D03*
G01*
X-254000Y-762000D03*
G01*
X0Y-762000D03*
G01*
X254000Y-762000D03*
G01*
X508000Y-762000D03*
G01*
X508000Y762000D03*
G01*
X254000Y762000D03*
G01*
X0Y762000D03*
G01*
X-254000Y762000D03*
G01*
X-508000Y762000D03*
G01*
X774700Y-762000D03*
G01*
X1028700Y-762000D03*
G01*
X1282700Y-762000D03*
G01*
X1536700Y-762000D03*
G01*
X1790700Y-762000D03*
G01*
X1790700Y762000D03*
G01*
X1536700Y762000D03*
G01*
X1282700Y762000D03*
G01*
X1028700Y762000D03*
G01*
X774700Y762000D03*
D14*
G01*
X8001000Y0D03*
D15*
G01*
X8499983Y-1999995D03*
G01*
X2699994Y0D03*
G01*
X-999997Y2199995D03*
G01*
X-999997Y-2199995D03*
M02*
